PathFileType	4	(X/Y/Z)	/Users/itak/Documents/Research/Walk-IL/dataset/trc/00128_00007.trc
DataRate	CameraRate	NumFrames	NumMarkers	Units	OrigDataRate	OrigDataStartFrame	OrigNumFrames
100.000000	100.000000	4	53	mm	100.000000	328	877
Frame#	Time	RPSI			LPSI			L3			STRN			T10			C7			CLAV			RBAK			LBAK			LSHO			LUPA			LAEL			LAOL			LWTS			LWPS			LFRA			LIFD			LHPS			LHTS			RSHO			RUPA			RAEL			RAOL			RWTS			RWPS			RFRA			RIFD			RHTS			RHPS			RBHD			LFHD			RFHD			LBHD			LHIP			RHIP			RASI			LASI			LKNE			LTHI			LANK			LTIP			LTOE			LMT1			LMT5			LHEE			RKNE			RTHI			RANK			RTIP			RTOE			RMT1			RMT5			RHEE			
		X1	Y1	Z1	X2	Y2	Z2	X3	Y3	Z3	X4	Y4	Z4	X5	Y5	Z5	X6	Y6	Z6	X7	Y7	Z7	X8	Y8	Z8	X9	Y9	Z9	X10	Y10	Z10	X11	Y11	Z11	X12	Y12	Z12	X13	Y13	Z13	X14	Y14	Z14	X15	Y15	Z15	X16	Y16	Z16	X17	Y17	Z17	X18	Y18	Z18	X19	Y19	Z19	X20	Y20	Z20	X21	Y21	Z21	X22	Y22	Z22	X23	Y23	Z23	X24	Y24	Z24	X25	Y25	Z25	X26	Y26	Z26	X27	Y27	Z27	X28	Y28	Z28	X29	Y29	Z29	X30	Y30	Z30	X31	Y31	Z31	X32	Y32	Z32	X33	Y33	Z33	X34	Y34	Z34	X35	Y35	Z35	X36	Y36	Z36	X37	Y37	Z37	X38	Y38	Z38	X39	Y39	Z39	X40	Y40	Z40	X41	Y41	Z41	X42	Y42	Z42	X43	Y43	Z43	X44	Y44	Z44	X45	Y45	Z45	X46	Y46	Z46	X47	Y47	Z47	X48	Y48	Z48	X49	Y49	Z49	X50	Y50	Z50	X51	Y51	Z51	X52	Y52	Z52	X53	Y53	Z53	

329	3.28	-481.8564758300781	1089.314697265625	-159.8577880859375	-563.7774047851562	1099.369384765625	-267.9690246582031	-527.2337646484375	1126.973022460938	-208.9633636474609	-354.8993530273438	1325.942993164062	-340.9937744140625	-540.0960693359375	1276.028076171875	-178.2474670410156	-527.0718383789062	1569.12939453125	-205.7763824462891	-387.5123596191406	1460.60302734375	-322.3233032226562	-510.4627685546875	1385.36083984375	-103.84619140625	-601.3526000976562	1548.707885742188	-275.5641174316406	-585.2010498046875	1535.216552734375	-384.4540405273438	-658.5643920898438	1407.471435546875	-416.820068359375	-688.1613159179688	1192.968994140625	-436.6457214355469	-687.3338623046875	1180.392944335938	-348.5503540039062	-615.7564697265625	928.0086669921875	-486.4119567871094	-687.6753540039062	908.40869140625	-439.096923828125	-692.038330078125	1076.755737304688	-451.8287658691406	-606.8159790039062	734.5838012695312	-480.7650451660156	-676.5730590820312	832.0782470703125	-462.5391540527344	-623.303466796875	838.7385864257812	-505.1282653808594	-366.5976867675781	1549.384155273438	-108.1690444946289	-338.1033325195312	1476.099609375	-48.3510856628418	-338.1819458007812	1179.930053710938	-24.60732650756836	-406.7783508300781	1179.849609375	-91.78547668457031	-232.1806945800781	946.4234619140625	-142.5644378662109	-265.9160461425781	924.647705078125	-70.18337249755859	-309.2908935546875	1106.618041992188	-31.59800148010254	-218.2650299072266	754.5233154296875	-181.1867370605469	-201.8981628417969	840.1502075195312	-162.9983520507812	-231.8699035644531	827.9321899414062	-96.43358612060547	-460.2770080566406	1739.541870117188	-178.15478515625	-364.0948486328125	1804.357055664062	-366.7649230957031	-306.5102844238281	1797.599365234375	-250.1008148193359	-525.2748413085938	1752.1259765625	-295.9432983398438	-551.1055297851562	1020.31005859375	-420.3907775878906	-315.237060546875	982.0071411132812	-141.6490631103516	-277.1861267089844	1058.70654296875	-228.9027862548828	-439.8218383789062	1078.464721679688	-441.1763610839844	-388.4187316894531	548.4051513671875	-522.4693603515625	-468.3060913085938	677.8026123046875	-503.5964660644531	-358.8731079101562	35.84049606323242	-589.5303955078125	-424.195556640625	289.9851989746094	-558.8079833984375	-130.8587493896484	73.45599365234375	-610.775146484375	-190.3289947509766	61.36995315551758	-551.5640869140625	-251.1797332763672	50.13861083984375	-648.2496948242188	-401.9810485839844	26.83682441711426	-507.7185974121094	-443.8223571777344	497.3086853027344	-180.9698028564453	-345.4329223632812	767.5364379882812	-170.4844512939453	-683.8523559570312	57.86128616333008	-13.39679527282715	-495.6704711914062	372.2145080566406	-134.6788787841797	-642.3244018554688	37.09228515625	-249.3927612304688	-699.9735717773438	42.58401107788086	-205.2192077636719	-607.0494995117188	40.53203582763672	-126.0405960083008	-748.9335327148438	84.21979522705078	15.24357032775879	
330	3.29	-476.1483459472656	1090.093627929688	-167.4501495361328	-556.2315673828125	1100.407104492188	-276.7190551757812	-520.7285766601562	1128.020751953125	-217.1497802734375	-347.062255859375	1327.132934570312	-347.3685302734375	-534.3690795898438	1276.99755859375	-186.6197662353516	-521.3204345703125	1570.085327148438	-214.3525848388672	-380.2191162109375	1461.690795898438	-329.1368103027344	-505.7395629882812	1386.397705078125	-112.1775054931641	-594.9114990234375	1549.577514648438	-285.0298461914062	-577.3075561523438	1536.04833984375	-393.6925354003906	-650.1536865234375	1408.250732421875	-426.9134216308594	-679.4900512695312	1193.769653320312	-447.0881958007812	-679.6228637695312	1181.229858398438	-358.97509765625	-607.507568359375	928.44677734375	-495.63916015625	-679.888427734375	909.2203979492188	-448.959716796875	-683.5363159179688	1077.566772460938	-462.1407165527344	-599.3696899414062	734.9771728515625	-489.3442687988281	-669.0017700195312	832.8152465820312	-472.14013671875	-615.270751953125	839.1223754882812	-514.1782836914062	-362.1047058105469	1550.571899414062	-114.7554931640625	-334.325439453125	1477.406005859375	-54.50956726074219	-334.9161682128906	1181.433837890625	-30.23737525939941	-402.2272033691406	1181.305786132812	-98.29644775390625	-229.0431213378906	946.0364990234375	-144.3304748535156	-264.1309814453125	925.2744140625	-72.23212432861328	-306.4366149902344	1107.960327148438	-36.13673400878906	-216.1948547363281	753.6133422851562	-180.6834869384766	-199.3315582275391	839.304443359375	-163.1625366210938	-230.4541015625	828.071044921875	-96.96089935302734	-455.0748901367188	1740.795776367188	-185.8236694335938	-356.6850891113281	1805.372802734375	-373.2174987792969	-300.2887573242188	1798.781494140625	-256.0484313964844	-518.5568237304688	1753.163330078125	-304.4721374511719	-541.9741821289062	1022.134094238281	-429.0405883789062	-309.739990234375	982.303466796875	-147.6732177734375	-270.6572875976562	1059.470092773438	-234.3101959228516	-430.5285339355469	1079.968872070312	-448.588623046875	-379.89306640625	548.7918701171875	-526.8439331054688	-458.5621337890625	679.1007080078125	-509.7787780761719	-357.1988830566406	35.26375961303711	-590.184814453125	-417.9037475585938	290.3646850585938	-563.1234741210938	-127.2489471435547	66.11548614501953	-607.47607421875	-188.2801971435547	56.19833374023438	-549.2874755859375	-247.9996337890625	46.91704940795898	-647.1165161132812	-401.8341674804688	28.04975128173828	-509.0654602050781	-435.232177734375	496.8428344726562	-188.0170593261719	-338.9228210449219	767.7848510742188	-176.8893585205078	-682.5390014648438	62.33004760742188	-14.49323654174805	-489.1050720214844	373.1086120605469	-139.3646392822266	-641.4837036132812	37.15321350097656	-249.5283203125	-698.8226318359375	44.01230239868164	-205.6024169921875	-606.2467651367188	40.38336944580078	-126.55810546875	-747.0421752929688	91.41114807128906	12.9277400970459	
331	3.3	-470.3610534667969	1091.0126953125	-174.98193359375	-548.4642944335938	1101.680053710938	-285.4586486816406	-514.214111328125	1129.32958984375	-225.2479858398438	-339.1204528808594	1328.590454101562	-353.5948486328125	-528.5869140625	1278.22119140625	-194.9211273193359	-515.4564819335938	1571.264038085938	-222.9048004150391	-372.8086547851562	1463.057861328125	-335.8490295410156	-500.9438781738281	1387.700927734375	-120.5039215087891	-588.30859375	1550.70068359375	-294.4827880859375	-569.2334594726562	1537.178344726562	-402.8930969238281	-641.5411376953125	1409.360473632812	-437.03662109375	-670.5633544921875	1194.889038085938	-457.547607421875	-671.7484741210938	1182.40087890625	-369.4212341308594	-598.996337890625	929.1639404296875	-504.75634765625	-671.9009399414062	910.3430786132812	-458.7916564941406	-674.765869140625	1078.696533203125	-472.4648132324219	-591.7473754882812	735.6519775390625	-497.7265625	-661.2565307617188	833.864013671875	-481.6758117675781	-606.979736328125	839.7741088867188	-523.0921630859375	-357.6127014160156	1552.0693359375	-121.2849502563477	-330.5611877441406	1479.0458984375	-60.58796310424805	-331.6946105957031	1183.302734375	-35.7766227722168	-397.7614135742188	1183.139404296875	-104.7469863891602	-225.9604949951172	946.0698852539062	-146.0184631347656	-262.4100341796875	926.2886352539062	-74.25604248046875	-303.5885620117188	1109.6982421875	-40.63191604614258	-214.1814270019531	753.175537109375	-180.20947265625	-196.8206481933594	838.9114379882812	-163.2832946777344	-229.1080169677734	828.6251220703125	-97.50179290771484	-449.7156372070312	1742.2939453125	-193.4488983154297	-349.1126403808594	1806.602172851562	-379.640380859375	-293.9968872070312	1800.159423828125	-261.9428100585938	-511.5848388671875	1754.386962890625	-312.8947143554688	-532.76220703125	1024.27001953125	-437.6100158691406	-304.4111938476562	982.7574462890625	-153.5635986328125	-264.1846923828125	1060.469482421875	-239.5818939208984	-421.1233520507812	1081.787231445312	-455.8382568359375	-371.5355834960938	549.4915771484375	-531.3157348632812	-448.9203796386719	680.7352294921875	-516.1036376953125	-355.9713745117188	34.75882720947266	-591.0218505859375	-411.958740234375	290.9880981445312	-567.8824462890625	-124.5708999633789	59.80865097045898	-604.9525756835938	-186.8363342285156	51.91520690917969	-547.6420288085938	-245.5711364746094	44.20915985107422	-646.5546264648438	-401.880615234375	29.22810173034668	-510.5362854003906	-425.6678466796875	496.3513793945312	-195.54296875	-332.1260986328125	768.1552734375	-183.4500274658203	-680.8121337890625	67.40399169921875	-15.93371391296387	-481.6756286621094	374.2040710449219	-144.5060272216797	-640.4752807617188	37.18403625488281	-249.7591400146484	-697.4551391601562	45.6477165222168	-206.1513824462891	-605.4652709960938	40.11383056640625	-127.1889419555664	-744.535400390625	99.45339202880859	10.04218292236328	
332	3.31	-464.5921630859375	1092.025512695312	-182.4835357666016	-540.57861328125	1103.150512695312	-294.1928100585938	-507.7301635742188	1130.845092773438	-233.3031616210938	-331.0934753417969	1330.234252929688	-359.6487121582031	-522.730712890625	1279.63134765625	-203.1977233886719	-509.4955444335938	1572.611938476562	-231.4199371337891	-365.281005859375	1464.635864257812	-342.4368896484375	-496.0933837890625	1389.206909179688	-128.8143920898438	-581.5279541015625	1552.024291992188	-303.9214782714844	-560.9561157226562	1538.558227539062	-412.0503540039062	-632.71630859375	1410.761596679688	-447.1949462890625	-661.4014892578125	1196.289794921875	-468.0124206542969	-663.7364501953125	1183.87060546875	-379.8870544433594	-590.2102661132812	930.1344604492188	-513.7645263671875	-663.7031860351562	911.7410278320312	-468.6077575683594	-665.7314453125	1080.105102539062	-482.7968444824219	-583.9190673828125	736.5851440429688	-505.9420471191406	-653.3141479492188	835.1921997070312	-491.1679382324219	-598.4027099609375	840.674560546875	-531.8826904296875	-353.128662109375	1553.811889648438	-127.7393951416016	-326.8174438476562	1480.9521484375	-66.56359100341797	-328.5391540527344	1185.470825195312	-41.18890380859375	-393.4419860839844	1185.270629882812	-111.1046142578125	-222.9139709472656	946.4835815429688	-147.6436614990234	-260.7180480957031	927.6429443359375	-76.27549743652344	-300.7625427246094	1111.762817382812	-45.05315780639648	-212.2120361328125	753.1657104492188	-179.8159484863281	-194.35302734375	838.9248657226562	-163.4032440185547	-227.8057556152344	829.5399169921875	-98.09088897705078	-444.1814270019531	1743.946533203125	-201.0083160400391	-341.4046020507812	1807.986328125	-386.0202026367188	-287.6448669433594	1801.687133789062	-267.7731018066406	-504.371826171875	1755.730224609375	-321.1604614257812	-523.4832153320312	1026.589965820312	-446.1155700683594	-299.3267822265625	983.3591918945312	-159.2893829345703	-257.8310546875	1061.650024414062	-244.6708679199219	-411.6242370605469	1083.806274414062	-462.912109375	-363.4560241699219	550.352294921875	-535.8851928710938	-439.4835205078125	682.55078125	-522.5263671875	-355.1329956054688	34.28522491455078	-591.9871215820312	-406.4207763671875	291.7308654785156	-572.8842163085938	-122.735237121582	54.61027526855469	-603.3157348632812	-185.8898773193359	48.57852554321289	-546.6720581054688	-243.8719329833984	41.97590637207031	-646.5606689453125	-402.0419921875	30.28686904907227	-512.0556640625	-415.0701904296875	495.8209533691406	-203.5068206787109	-325.0470886230469	768.6375122070312	-190.1297149658203	-678.5513916015625	73.08763122558594	-17.76229476928711	-473.27734375	375.4779052734375	-150.1380004882812	-639.310791015625	37.17021560668945	-250.0991516113281	-695.8368530273438	47.53414535522461	-206.9100036621094	-604.7343139648438	39.69937133789062	-127.9354934692383	-741.2322998046875	108.3321380615234	6.551638126373291	
